<svg id="Layer_1" data-name="Layer 1" xmlns="http://www.w3.org/2000/svg" viewBox="0 0 48 48"><defs><style>.cls-1{fill:#28b04b;}.cls-2{fill:#fff;}</style></defs><title>jwlanguage-color</title><rect class="cls-1" width="38" height="38"/><path class="cls-2" d="M5.34,25.35h.54V29H7.75v.47H5.34Z"/><path class="cls-2" d="M10.5,28.24H9l-.43,1.23H8l1.51-4.13H10l1.51,4.13h-.57Zm-1.38-.46h1.21l-.61-1.71Z"/><path class="cls-2" d="M11.92,25.35h.48l1.95,3.1v-3.1h.53v4.12h-.44l-2-3.17v3.17h-.52Z"/><path class="cls-2" d="M18.35,26.19a2.39,2.39,0,0,0-.44-.29,1.18,1.18,0,0,0-.55-.12,1,1,0,0,0-.49.12,1.09,1.09,0,0,0-.4.34,1.52,1.52,0,0,0-.28.52,2.26,2.26,0,0,0,0,1.33,1.62,1.62,0,0,0,.28.52,1.3,1.3,0,0,0,.41.33,1.23,1.23,0,0,0,1,0,1,1,0,0,0,.29-.18V27.71h-.95v-.47h1.47V29a2.31,2.31,0,0,1-.23.18,1.15,1.15,0,0,1-.29.16,1.9,1.9,0,0,1-.36.12,1.84,1.84,0,0,1-.41,0,1.92,1.92,0,0,1-.77-.15A1.7,1.7,0,0,1,16,29a2.14,2.14,0,0,1-.38-.68,2.65,2.65,0,0,1-.13-.87,2.45,2.45,0,0,1,.14-.83A2.09,2.09,0,0,1,16,25.9a1.75,1.75,0,0,1,.59-.45,1.64,1.64,0,0,1,.74-.16,1.92,1.92,0,0,1,.71.12,2.36,2.36,0,0,1,.58.35Z"/><path class="cls-2" d="M20,25.35v2.56a1.3,1.3,0,0,0,.26.86.89.89,0,0,0,.71.3.86.86,0,0,0,.7-.31,1.26,1.26,0,0,0,.26-.84V25.35h.53V27.9a2,2,0,0,1-.11.72,1.28,1.28,0,0,1-.3.51,1.21,1.21,0,0,1-.48.31,2,2,0,0,1-.62.1,1.89,1.89,0,0,1-.6-.1,1.35,1.35,0,0,1-.47-.3,1.44,1.44,0,0,1-.3-.51,1.89,1.89,0,0,1-.11-.71V25.35Z"/><path class="cls-2" d="M25.28,28.24H23.73l-.43,1.23h-.54l1.5-4.13h.51l1.51,4.13h-.57Zm-1.38-.46h1.21l-.61-1.71Z"/><path class="cls-2" d="M29.22,26.19a2,2,0,0,0-.43-.29,1.2,1.2,0,0,0-.55-.12,1,1,0,0,0-.49.12,1.21,1.21,0,0,0-.41.34,1.7,1.7,0,0,0-.27.52,2.26,2.26,0,0,0,0,1.33,1.62,1.62,0,0,0,.28.52,1.2,1.2,0,0,0,.41.33,1.17,1.17,0,0,0,.52.12,1.08,1.08,0,0,0,.46-.09,1,1,0,0,0,.3-.18V27.71h-.95v-.47h1.47V29a2.31,2.31,0,0,1-.23.18,1.35,1.35,0,0,1-.29.16,1.9,1.9,0,0,1-.36.12,1.84,1.84,0,0,1-.41,0,1.89,1.89,0,0,1-.77-.15,1.7,1.7,0,0,1-.59-.43,2,2,0,0,1-.38-.68,2.65,2.65,0,0,1-.13-.87,2.45,2.45,0,0,1,.14-.83,2.09,2.09,0,0,1,.38-.67,1.82,1.82,0,0,1,.58-.45,1.71,1.71,0,0,1,.75-.16,1.92,1.92,0,0,1,.71.12,2.36,2.36,0,0,1,.58.35Z"/><path class="cls-2" d="M30.35,25.35h2.39v.48H30.88v1.31h1.65v.47H30.88V29h1.89v.47H30.35Z"/><path class="cls-2" d="M10.6,21.69a4.67,4.67,0,0,1-1.94-.35,6.64,6.64,0,0,1-1.45-.87l.72-1.33a6.91,6.91,0,0,0,1.23.77,3.14,3.14,0,0,0,1.33.28,1.76,1.76,0,0,0,1.5-.71,3.28,3.28,0,0,0,.51-1.94V8.47h1.69v9a4.88,4.88,0,0,1-.87,3,3.21,3.21,0,0,1-2.72,1.14"/><path class="cls-2" d="M18.79,21.56h1.45l3.09-9.79,2.79,9.79h1.46l3.19-13.1H29s-2.08,9.46-2.21,10L24.07,9H22.64l-2.9,9.44-2.1-9.95H15.82Z"/><path id="Combined-Shape" class="cls-1" d="M40,34a4,4,0,0,1,1.16-2.84,4.09,4.09,0,0,1,1.26-.86,4,4,0,0,1,3.1,0,4.13,4.13,0,0,1,1.27.86,4,4,0,0,1,.85,1.28A3.85,3.85,0,0,1,48,34a3.92,3.92,0,0,1-.32,1.56,4.06,4.06,0,0,1-.85,1.26,4.13,4.13,0,0,1-1.27.86,4,4,0,0,1-3.1,0,4.09,4.09,0,0,1-1.26-.86A3.94,3.94,0,0,1,40,34Zm.56,0a3.29,3.29,0,0,0,.27,1.33,3.56,3.56,0,0,0,.74,1.09,3.52,3.52,0,0,0,1.08.74,3.25,3.25,0,0,0,1.32.27,3.29,3.29,0,0,0,1.33-.27,3.45,3.45,0,0,0,1.09-.74,3.37,3.37,0,0,0,.73-1.09,3.47,3.47,0,0,0-.73-3.77,3.45,3.45,0,0,0-1.09-.74A3.29,3.29,0,0,0,44,30.56a3.25,3.25,0,0,0-1.32.27,3.51,3.51,0,0,0-1.82,1.84A3.31,3.31,0,0,0,40.6,34Zm1.9-2.07H44a2.35,2.35,0,0,1,.6.08,1.37,1.37,0,0,1,.5.24,1.16,1.16,0,0,1,.36.4,1.31,1.31,0,0,1,.13.58,1.17,1.17,0,0,1-.25.79,1.41,1.41,0,0,1-.6.4l1.36,1.66h-1l-1.2-1.53h-.62v1.53H42.5ZM44,33.8a1.06,1.06,0,0,0,.58-.14.45.45,0,0,0,.21-.4.46.46,0,0,0-.21-.41,1,1,0,0,0-.55-.14h-.67V33.8Z"/></svg>