<svg id="Layer_1" data-name="Layer 1" xmlns="http://www.w3.org/2000/svg" viewBox="0 0 48 48"><defs><style>.cls-1{fill:#e36600;}.cls-2{fill:#fff;}</style></defs><title>jworg-apps-trademark-color</title><rect class="cls-1" width="38" height="38"/><path class="cls-2" d="M10.79,19.55a4.84,4.84,0,0,1-1.94-.35,6.89,6.89,0,0,1-1.45-.87L8.12,17a6.91,6.91,0,0,0,1.23.77,3.17,3.17,0,0,0,1.33.28,1.76,1.76,0,0,0,1.5-.71,3.25,3.25,0,0,0,.51-1.93V6.34h1.69v9a4.88,4.88,0,0,1-.87,3,3.21,3.21,0,0,1-2.72,1.14M19,19.42h1.44L23.5,9.64l2.79,9.78h1.46L30.94,6.34H29.2S27.12,15.78,27,16.28L24.24,6.84H22.82l-2.9,9.44-2.1-9.94H16ZM13.08,31.35a3.47,3.47,0,0,0,1.2-1A4.36,4.36,0,0,0,15,28.93a6.19,6.19,0,0,0,.27-1.88A5.83,5.83,0,0,0,15,25.18a4.22,4.22,0,0,0-.79-1.43A3.31,3.31,0,0,0,13,22.83a3.61,3.61,0,0,0-1.54-.33,3.68,3.68,0,0,0-1.57.33,3.43,3.43,0,0,0-1.22.92,4.35,4.35,0,0,0-.79,1.44,6,6,0,0,0-.29,1.89A6.55,6.55,0,0,0,7.88,29a4.31,4.31,0,0,0,.74,1.45,3.3,3.3,0,0,0,1.21,1,3.7,3.7,0,0,0,1.64.34A3.66,3.66,0,0,0,13.08,31.35Zm-.44-7.73a2.82,2.82,0,0,1,.9.79,3.81,3.81,0,0,1,.57,1.18,5,5,0,0,1,.21,1.49,5.22,5.22,0,0,1-.21,1.52,3.9,3.9,0,0,1-.59,1.21,2.79,2.79,0,0,1-.9.78,2.45,2.45,0,0,1-1.13.28,2.42,2.42,0,0,1-1.17-.29,2.63,2.63,0,0,1-.91-.79,3.83,3.83,0,0,1-.58-1.2,5.61,5.61,0,0,1-.2-1.53,5.36,5.36,0,0,1,.19-1.48A3.82,3.82,0,0,1,9.4,24.4a2.83,2.83,0,0,1,.91-.78,2.49,2.49,0,0,1,2.33,0Zm10.53,7.93-2.48-3.86.16,0a3.66,3.66,0,0,0,.8-.3,2.28,2.28,0,0,0,1.08-1.2,2.63,2.63,0,0,0,.16-.91,2.58,2.58,0,0,0-.25-1.16,2.21,2.21,0,0,0-.67-.81,2.92,2.92,0,0,0-1-.47,4.45,4.45,0,0,0-1.16-.16H16.92v8.91h.95V27.83h1.8L22,31.55Zm-5.3-8.07h1.91a2.34,2.34,0,0,1,1.5.47,1.62,1.62,0,0,1,.59,1.32,1.53,1.53,0,0,1-.59,1.29,2.59,2.59,0,0,1-1.61.45h-1.8ZM29,31.58a4.09,4.09,0,0,0,.77-.24,3.8,3.8,0,0,0,.63-.35c.16-.12.32-.24.45-.36v-3.8h-3v.8H29.9V30.2l0,0a2.68,2.68,0,0,1-.68.42,2.6,2.6,0,0,1-1.08.22,2.71,2.71,0,0,1-1.2-.28,2.84,2.84,0,0,1-1-.77,3.68,3.68,0,0,1-.63-1.18,4.92,4.92,0,0,1-.22-1.53,4.77,4.77,0,0,1,.22-1.5,3.65,3.65,0,0,1,.63-1.19,2.77,2.77,0,0,1,.93-.78A2.38,2.38,0,0,1,28,23.36a2.7,2.7,0,0,1,1.27.28,5.66,5.66,0,0,1,.89.58l.56-.75a4.77,4.77,0,0,0-1.17-.7A4.13,4.13,0,0,0,28,22.51a3.69,3.69,0,0,0-1.61.35,3.92,3.92,0,0,0-1.26.95,4.48,4.48,0,0,0-.82,1.45,5.39,5.39,0,0,0-.3,1.82A5.91,5.91,0,0,0,24.33,29a4.12,4.12,0,0,0,.82,1.45,3.63,3.63,0,0,0,1.26.93,4.07,4.07,0,0,0,1.66.33A4.26,4.26,0,0,0,29,31.58ZM7,30.14H5.59v1.37H7Z"/><path id="Combined-Shape" class="cls-1" d="M40,34a4,4,0,0,1,1.16-2.84,4.09,4.09,0,0,1,1.26-.86,4,4,0,0,1,3.1,0,4.13,4.13,0,0,1,1.27.86,4,4,0,0,1,.85,1.28A3.85,3.85,0,0,1,48,34a3.92,3.92,0,0,1-.32,1.56,4.06,4.06,0,0,1-.85,1.26,4.13,4.13,0,0,1-1.27.86,4,4,0,0,1-3.1,0,4.09,4.09,0,0,1-1.26-.86A3.94,3.94,0,0,1,40,34Zm.56,0a3.29,3.29,0,0,0,.27,1.33,3.56,3.56,0,0,0,.74,1.09,3.52,3.52,0,0,0,1.08.74,3.25,3.25,0,0,0,1.32.27,3.29,3.29,0,0,0,1.33-.27,3.45,3.45,0,0,0,1.09-.74,3.37,3.37,0,0,0,.73-1.09,3.47,3.47,0,0,0-.73-3.77,3.45,3.45,0,0,0-1.09-.74A3.29,3.29,0,0,0,44,30.56a3.25,3.25,0,0,0-1.32.27,3.51,3.51,0,0,0-1.82,1.84A3.31,3.31,0,0,0,40.6,34Zm1.9-2.07H44a2.35,2.35,0,0,1,.6.08,1.37,1.37,0,0,1,.5.24,1.16,1.16,0,0,1,.36.4,1.31,1.31,0,0,1,.13.58,1.17,1.17,0,0,1-.25.79,1.41,1.41,0,0,1-.6.4l1.36,1.66h-1l-1.2-1.53h-.62v1.53H42.5ZM44,33.8a1.06,1.06,0,0,0,.58-.14.45.45,0,0,0,.21-.4.46.46,0,0,0-.21-.41,1,1,0,0,0-.55-.14h-.67V33.8Z"/></svg>