<svg id="Layer_1" data-name="Layer 1" xmlns="http://www.w3.org/2000/svg" xmlns:xlink="http://www.w3.org/1999/xlink" viewBox="0 0 48 48"><defs><style>.cls-1{fill:none;}.cls-2{clip-path:url(#clip-path);}.cls-3{fill:#723535;}.cls-4{clip-path:url(#clip-path-2);}.cls-5{clip-path:url(#clip-path-3);}.cls-6{fill:url(#Unnamed_Pattern_2);}.cls-7{fill:#fff;}.cls-8{fill:url(#Unnamed_Pattern_6-3);}</style><clipPath id="clip-path"><rect class="cls-1" x="592" y="2936" width="300" height="300"/></clipPath><clipPath id="clip-path-2"><rect class="cls-1" x="592" y="3236" width="300" height="2696"/></clipPath><clipPath id="clip-path-3"><rect class="cls-1" x="592" width="300" height="2936"/></clipPath><pattern id="Unnamed_Pattern_2" data-name="Unnamed Pattern 2" width="5100" height="5932" patternTransform="matrix(0.095, 0, 0, -0.095, 7394.06102, -6308.16491)" patternUnits="userSpaceOnUse" viewBox="0 0 5100 5932"><rect class="cls-1" width="5100" height="5932"/><rect class="cls-1" width="5100" height="5932"/><rect class="cls-3" y="3236" width="592" height="2696"/><rect class="cls-3" x="892" y="3236" width="4208" height="2696"/><rect class="cls-3" x="892" width="4208" height="2936"/><rect class="cls-3" width="592" height="2936"/></pattern><pattern id="Unnamed_Pattern_6-3" data-name="Unnamed Pattern 6-3" width="5100" height="5932" patternTransform="matrix(0.095, 0, 0, -0.095, 7394.91602, -6304.45991)" patternUnits="userSpaceOnUse" viewBox="0 0 5100 5932"><rect class="cls-1" width="5100" height="5932"/><rect class="cls-1" width="5100" height="5932"/><rect class="cls-3" y="3236" width="592" height="2696"/><rect class="cls-3" x="892" y="3236" width="4208" height="2696"/><rect class="cls-3" x="892" width="4208" height="2936"/><rect class="cls-3" width="592" height="2936"/></pattern></defs><title>wl-trademark-color</title><rect class="cls-6" y="0.00005" width="38" height="38.00016"/><path class="cls-7" d="M32.375,30.93071,29.40411,22.765a7.7893,7.7893,0,0,0-2.818-10.02454.47824.47824,0,0,0,.02185-.10851V6.7481a.49971.49971,0,0,0-.49942-.5H21.8457a.49972.49972,0,0,0-.5.49944V8.55083H20.957V6.7481a.49971.49971,0,0,0-.49942-.5H18.47314a.49973.49973,0,0,0-.5.49944V8.55083h-.27929V6.7481a.49972.49972,0,0,0-.49944-.5h-2.047a.49971.49971,0,0,0-.5.49942V8.55083h-.34375V6.7481a.49971.49971,0,0,0-.49942-.5H11.80908a.49971.49971,0,0,0-.5.49942V8.55083h-.42822V6.7481a.49971.49971,0,0,0-.49942-.5h-4.212a.49972.49972,0,0,0-.5.49944v5.88435a.49972.49972,0,0,0,.49944.5h.5489v.52246a.49972.49972,0,0,0,.49944.5H7.771V25.03167l-2.14649,5.899a.49942.49942,0,0,0,.0625.46094.50463.50463,0,0,0,.416.21l10.76125-.18456a1.80092,1.80092,0,0,0,1.03613.335A3.22332,3.22332,0,0,0,19,31.52428a3.22326,3.22326,0,0,0,1.09961.22772,1.80092,1.80092,0,0,0,1.03613-.335l10.76074.18457a.538.538,0,0,0,.416-.21A.498.498,0,0,0,32.375,30.93071ZM15.88672,20.68657a13.41376,13.41376,0,0,1,1.6001-.13867c.853,0,.99267.46289,1.0039.46778v8.16394a2.89335,2.89335,0,0,0-1.57763-.4198c-.29786,0-.85108.02246-1.50342.04882-.915.03711-2.02832.082-2.88574.082-1.00049,0-2.56446-.13673-3.41211-.21875l2.24566-7.67519A35.98093,35.98093,0,0,0,15.88672,20.68657Zm4.43115-1.35352a2.05689,2.05689,0,0,1,4.11377,0,2.03123,2.03123,0,0,1-.09241.57507c-.24786-.01776-.48468-.03662-.70288-.05707a1.36763,1.36763,0,1,0-2.60211-.276c-.17389-.01159-.34894-.02717-.52106-.02717-.05786,0-.10522.01019-.16009.01319A2.05993,2.05993,0,0,1,20.31787,19.33305Zm.28858,10.708a1.055,1.055,0,0,1-.854.2129,1.76971,1.76971,0,0,1,1.33447-.49415c.28955,0,.82813.02247,1.46289.04785.92774.03711,2.05665.083,2.92627.083,1.24164,0,3.22394-.19288,3.88831-.26136l.39349.36176-8.82721-.06623A.55411.55411,0,0,0,20.60645,30.04105Zm6.03564-9.04431,2.24658,7.67518c-.84765.082-2.41162.21875-3.4126.21875-.85742,0-1.9707-.04493-2.88574-.082-.65234-.02636-1.20556-.04883-1.50342-.04883a2.893,2.893,0,0,0-1.57855.42029l-.00494-8.08728c.001-.00586.09521-.54492,1.00976-.54492a13.4096,13.4096,0,0,1,1.6001.13867,35.9704,35.9704,0,0,0,4.52881.31015Zm-4.26758-1.29846a.36475.36475,0,1,1,.36524-.36523.36476.36476,0,0,1-.36524.36523ZM17.07324,29.92486h-.0039l-8.82752.06619.39343-.36176c.66462.06842,2.64685.26136,3.88868.26136.86962,0,1.99853-.0459,2.92627-.083.63476-.02539,1.17334-.04785,1.46289-.04785a1.76885,1.76885,0,0,1,1.33545.49511,1.08084,1.08084,0,0,1-.855-.21386A.50063.50063,0,0,0,17.07324,29.92486ZM29.207,19.33305a6.851,6.851,0,0,1-.31732,2.01795l-.05768-.15857a.5.5,0,0,0-.46973-.3291h-.27246l-.71875-.71777-.14013-.09369a.48378.48378,0,0,0-.08649-.02754.47708.47708,0,0,0-.09778-.01947c-.01-.00061-.019-.0058-.02911-.0058-.61139,0-1.15717-.01269-1.65344-.03307a3.05705,3.05705,0,1,0-6.005-.13941,1.76985,1.76985,0,0,0-.355.256,2.12429,2.12429,0,0,0-1.51739-.53474,13.95468,13.95468,0,0,0-1.72315.14649l-.19659.0241c-.0072-.12878-.02411-.25494-.02411-.38543a6.832,6.832,0,0,1,13.66406,0ZM8.271,13.15435H7.71777v-.52246a.49971.49971,0,0,0-.49942-.5H6.66943V7.2481H9.88086V9.05083a.49971.49971,0,0,0,.49942.5h1.4288a.49971.49971,0,0,0,.5-.49942V7.2481h.99463V9.05083a.49971.49971,0,0,0,.49942.5h1.34433a.49971.49971,0,0,0,.5-.49942V7.2481h1.04639V9.05083a.49971.49971,0,0,0,.49942.5h1.27987a.49971.49971,0,0,0,.5-.49942V7.2481H19.957V9.05083a.49971.49971,0,0,0,.49942.5H21.8457a.49971.49971,0,0,0,.5-.49942V7.2481h3.26221v4.88379H25.4502A7.8284,7.8284,0,0,0,14.543,19.33305c0,.1687.02057.33143.03107.49713a35.12681,35.12681,0,0,1-3.59211.16888c-.01043,0-.01977.00531-.03009.006a.43251.43251,0,0,0-.26629.10235.4909.4909,0,0,0-.05713.03816l-.71826.71777H9.6377a.5.5,0,0,0-.46973.32909l-.397,1.091V13.65435a.49973.49973,0,0,0-.49944-.5Z"/><path id="Combined-Shape" class="cls-8" d="M40.03546,34.00543a3.92813,3.92813,0,0,1,.311-1.56011,3.96437,3.96437,0,0,1,6.47964-1.27371,4.11554,4.11554,0,0,1,.85751,1.27371,3.99057,3.99057,0,0,1-5.22036,5.24148,4.05094,4.05094,0,0,1-1.26462-.85264,3.97293,3.97293,0,0,1-.85217-1.26863A3.92714,3.92714,0,0,1,40.03546,34.00543Zm.56811,0a3.32311,3.32311,0,0,0,.26833,1.33343,3.48232,3.48232,0,0,0,1.81672,1.82978,3.25666,3.25666,0,0,0,1.32363.27,3.29668,3.29668,0,0,0,1.32924-.27,3.4538,3.4538,0,0,0,1.08791-.73944,3.49966,3.49966,0,0,0,.73416-1.09034,3.32756,3.32756,0,0,0,.268-1.33343,3.36627,3.36627,0,0,0-.268-1.33881,3.45566,3.45566,0,0,0-1.82207-1.83516,3.30145,3.30145,0,0,0-1.32924-.26968,3.26115,3.26115,0,0,0-1.32363.26968,3.46777,3.46777,0,0,0-1.81672,1.83516A3.362,3.362,0,0,0,40.60357,34.00543Zm1.89736-2.06211h1.52229a2.30693,2.30693,0,0,1,.5948.07555,1.48659,1.48659,0,0,1,.50376.23771,1.23838,1.23838,0,0,1,.35346.40495,1.34,1.34,0,0,1-.11745,1.36569,1.29132,1.29132,0,0,1-.59508.39929L46.124,36.08906h-.9862l-1.20028-1.53293h-.62207v1.53293h-.81452Zm1.45794,1.857a1.0401,1.0401,0,0,0,.58385-.14009.45364.45364,0,0,0,.20931-.39957.46342.46342,0,0,0-.20931-.41033.9721.9721,0,0,0-.55183-.14037h-.67544v1.09036Z"/></svg>